# xmcd
#
# Track frame offsets: 
#        150
#        21839
#        40238
#        52971
#        72518
#        89866
#        106735
#        125383
#        141831
#        161933
#        178149
#        192313
#        206095
#        217909
#        222406
#        226626
#        233075
#        238250
#        245045
#        249627
#        253773
#        257437
#        264616
#        270027
#        276005
#        281997
#        290454
#        296060
#
# Disc length: 4131 seconds
#
# Revision: 0
# Processed by: cddbd v1.5.1PL2 Copyright (c) Steve Scherf et al.
# Submitted via: ExactAudioCopy v0.95b2
#
DISCID=bb10211c
DTITLE=Δημήτρης Κοντολάζος - 10 Νέα and 45 Live cd1
DYEAR=2006
DGENRE=Folk
TTITLE0=Γράψε Ένα Τραγούδι (Με Σταμάτη Γονίδη)
TTITLE1=Σε Γυρεύω Παντού
TTITLE2=Εξαίρεση
TTITLE3=Δεν Τελειώνει Αυτή Η Αγάπη
TTITLE4=Δεν Είσ' Εδώ
TTITLE5=Πρώτη Μου Φορά
TTITLE6=Πες Μου Που Πας
TTITLE7=Αυτό Που Ζήσαμε Μαζί
TTITLE8=Τα Καλοκαίρια
TTITLE9=Να 'Ταν Η Αγάπη Από Φυαλί
TTITLE10=Intro
TTITLE11=Αν Μ' Αγαπούσες Λίγο
TTITLE12=’σε Με Εμένα
TTITLE13=Κάνε Μου Σινιάλο
TTITLE14=Λυπήσου Με
TTITLE15=Σε Θέλω Σαν Τρελός
TTITLE16=Γύρνα
TTITLE17=Σαν Τρελός Σ' Αγαπάω
TTITLE18=Κάπου Κάπου Σε Θυμάμαι
TTITLE19=Δικαίωμα Μου
TTITLE20=Μια Νύχτα Στον Παράδεισο
TTITLE21=Τσικουλάτα
TTITLE22=Αν Ήξερες Την Ιστορία Μου
TTITLE23=Τέσσερις Πήγε
TTITLE24=Εγώ Δεν Ήμουνα Αλήτης
TTITLE25=Απόψε Θέλω Να Πιω
TTITLE26=Συγγνώμη Μάνα Μου
TTITLE27=Μια Ιστορία (Με Όλγα Βασιλειάδου)
EXTD=
EXTT0=
EXTT1=
EXTT2=
EXTT3=
EXTT4=
EXTT5=
EXTT6=
EXTT7=
EXTT8=
EXTT9=
EXTT10=
EXTT11=
EXTT12=
EXTT13=
EXTT14=
EXTT15=
EXTT16=
EXTT17=
EXTT18=
EXTT19=
EXTT20=
EXTT21=
EXTT22=
EXTT23=
EXTT24=
EXTT25=
EXTT26=
EXTT27=
PLAYORDER=
